<svg width="289" height="46" viewBox="0 0 289 46" xmlns="http://www.w3.org/2000/svg"><g fill="none" fill-rule="evenodd"><path d="M154.153 21.893a9.6 9.6 0 0 1 .57-3.225 8.942 8.942 0 0 1 1.656-2.872 8.503 8.503 0 0 1 2.68-2.06c1.063-.533 2.27-.798 3.618-.798 1.602 0 2.968.362 4.098 1.088 1.13.725 1.973 1.67 2.53 2.833l-1.417.86a5.46 5.46 0 0 0-1.038-1.494 5.595 5.595 0 0 0-2.783-1.53 7.035 7.035 0 0 0-1.493-.165c-1.08 0-2.032.22-2.86.66a6.58 6.58 0 0 0-2.086 1.72 7.508 7.508 0 0 0-1.276 2.39 8.695 8.695 0 0 0-.43 2.694c0 .995.172 1.948.518 2.86.346.91.818 1.715 1.417 2.415.598.7 1.306 1.255 2.124 1.668.818.413 1.707.62 2.67.62.505 0 1.023-.063 1.554-.19a5.996 5.996 0 0 0 1.544-.607 6.495 6.495 0 0 0 1.378-1.036 5.364 5.364 0 0 0 1.063-1.505l1.467.758a5.492 5.492 0 0 1-1.214 1.783 7.984 7.984 0 0 1-1.746 1.304 8.7 8.7 0 0 1-2.036.81 8.41 8.41 0 0 1-2.113.278c-1.23 0-2.36-.27-3.388-.81a8.89 8.89 0 0 1-2.657-2.112 9.802 9.802 0 0 1-1.732-2.96 9.57 9.57 0 0 1-.62-3.377zm23.805 9.36c-.962 0-1.843-.18-2.644-.544a6.427 6.427 0 0 1-2.074-1.48 6.715 6.715 0 0 1-1.354-2.176 7.144 7.144 0 0 1-.48-2.606c0-.928.164-1.805.493-2.63a6.894 6.894 0 0 1 1.365-2.176 6.592 6.592 0 0 1 2.074-1.493c.8-.372 1.673-.558 2.618-.558.944 0 1.817.186 2.618.557.8.37 1.492.868 2.074 1.492a6.894 6.894 0 0 1 1.366 2.175 7.05 7.05 0 0 1 .494 2.63c0 .912-.165 1.78-.494 2.607a6.894 6.894 0 0 1-1.366 2.175 6.427 6.427 0 0 1-2.074 1.48c-.8.362-1.674.543-2.618.543zm-4.782-6.78c0 .742.123 1.43.367 2.062.245.632.582 1.19 1.012 1.67.43.48.936.856 1.518 1.125.582.27 1.2.405 1.86.405.657 0 1.277-.14 1.86-.417a4.938 4.938 0 0 0 1.53-1.14c.438-.48.783-1.04 1.036-1.68a5.6 5.6 0 0 0 .38-2.075 5.63 5.63 0 0 0-.38-2.062 5.39 5.39 0 0 0-1.038-1.694 4.986 4.986 0 0 0-1.518-1.138 4.174 4.174 0 0 0-1.846-.418c-.658 0-1.278.14-1.86.418a4.706 4.706 0 0 0-1.518 1.15 5.684 5.684 0 0 0-1.024 1.708 5.698 5.698 0 0 0-.38 2.087zM206.923 31h-1.72v-7.362c0-1.534-.24-2.664-.72-3.39-.482-.725-1.21-1.087-2.19-1.087a3.69 3.69 0 0 0-1.43.28c-.446.185-.86.446-1.238.783-.38.338-.713.738-1 1.202a5.79 5.79 0 0 0-.657 1.53V31h-1.72v-7.362c0-1.568-.237-2.706-.71-3.415-.47-.708-1.196-1.062-2.174-1.062-.995 0-1.88.347-2.657 1.038-.775.692-1.332 1.602-1.67 2.732V31h-1.72V17.82h1.57v2.985c.54-1.012 1.247-1.8 2.124-2.365a5.26 5.26 0 0 1 2.91-.848c1.113 0 2.007.312 2.682.936.674.624 1.08 1.442 1.214 2.454 1.23-2.26 2.934-3.39 5.11-3.39.725 0 1.345.135 1.86.405.514.27.927.654 1.24 1.15.31.5.54 1.097.682 1.797.143.7.215 1.48.215 2.34V31zm23.172 0h-1.72v-7.362c0-1.534-.24-2.664-.72-3.39-.482-.725-1.21-1.087-2.19-1.087a3.69 3.69 0 0 0-1.428.28c-.447.185-.86.446-1.24.783-.38.338-.713.738-1 1.202a5.79 5.79 0 0 0-.657 1.53V31h-1.72v-7.362c0-1.568-.236-2.706-.71-3.415-.47-.708-1.196-1.062-2.174-1.062-.995 0-1.88.347-2.656 1.038-.776.692-1.333 1.602-1.67 2.732V31h-1.72V17.82h1.568v2.985c.54-1.012 1.248-1.8 2.125-2.365a5.26 5.26 0 0 1 2.91-.848c1.113 0 2.006.312 2.68.936.676.624 1.08 1.442 1.215 2.454 1.23-2.26 2.935-3.39 5.11-3.39.725 0 1.345.135 1.86.405.514.27.927.654 1.24 1.15.31.5.54 1.097.682 1.797.144.7.215 1.48.215 2.34V31zm7.64.253c-1.383 0-2.43-.476-3.137-1.43-.708-.952-1.062-2.373-1.062-4.262v-7.74h1.72v7.438c0 2.985 1.02 4.477 3.06 4.477a4.55 4.55 0 0 0 1.493-.253c.488-.168.94-.413 1.353-.733.413-.322.784-.7 1.113-1.14.33-.438.594-.936.797-1.492V17.82h1.72v10.954c0 .472.21.708.632.708V31c-.337.05-.573.076-.708.076-.388 0-.72-.118-1-.354a1.114 1.114 0 0 1-.417-.886v-1.82c-.59 1.028-1.374 1.825-2.352 2.39a6.31 6.31 0 0 1-3.213.847zM259.77 31h-1.72v-7.362c0-1.568-.23-2.706-.684-3.415-.456-.708-1.164-1.062-2.125-1.062-.505 0-1.01.094-1.517.28a5.313 5.313 0 0 0-1.417.783 5.57 5.57 0 0 0-1.15 1.202 5.34 5.34 0 0 0-.747 1.505V31h-1.72V17.82h1.567v2.985a6.16 6.16 0 0 1 1-1.303 6.565 6.565 0 0 1 2.883-1.682 6.37 6.37 0 0 1 1.708-.228c.742 0 1.362.135 1.86.405.497.27.897.65 1.2 1.14.304.488.524 1.086.66 1.795.134.708.2 1.492.2 2.352V31zm3.566 0V17.82h1.72V31h-1.72zm0-15.937v-2.53h1.72v2.53h-1.72zm11.788 15.305c-.1.05-.248.118-.442.202a7.847 7.847 0 0 1-1.53.48c-.32.068-.658.102-1.013.102-.372 0-.726-.05-1.063-.152a2.477 2.477 0 0 1-.886-.468 2.304 2.304 0 0 1-.606-.797 2.573 2.573 0 0 1-.227-1.113v-9.436h-1.822V17.82h1.822v-4.452h1.72v4.452h3.036v1.366h-3.036v8.955c.034.49.202.85.506 1.077.303.227.666.34 1.088.34.49 0 .92-.08 1.29-.24.372-.16.608-.273.71-.34l.454 1.39zm2.758 4.705a2.617 2.617 0 0 0 .506.05c.168 0 .35-.016.544-.05.194-.034.333-.068.417-.1a.725.725 0 0 0 .265-.216c.092-.11.21-.304.354-.582.142-.278.324-.666.543-1.164.22-.496.497-1.167.835-2.01l-5.743-13.18h1.796l4.884 11.586 4.502-11.586h1.645l-6.855 17c-.253.624-.594 1.088-1.024 1.39-.43.305-1.032.457-1.808.457a4.41 4.41 0 0 1-.86-.076v-1.517z" fill="#FFF"/><path d="M109.672 19.887l-1.11 4.072 3.572-2.03a4.12 4.12 0 0 0-2.462-2.043zm-8.763 4.156c0 4.362 3.41 7.9 7.62 7.9s7.623-3.538 7.623-7.9-3.412-7.9-7.622-7.9-7.62 3.538-7.62 7.9zm7.62-5.643c3.003 0 5.445 2.532 5.445 5.643 0 3.11-2.442 5.643-5.444 5.643-3 0-5.443-2.532-5.443-5.643 0-3.11 2.442-5.643 5.444-5.643zm2.632-3.234c.002-.03.008-.06.008-.09v-.713c0-.786-.612-1.424-1.368-1.424h-2.394c-.755 0-1.368.636-1.368 1.423v.7a8.54 8.54 0 0 1 5.122.103zm-8.36 1.394a1.33 1.33 0 0 0-1.934 0l-.242.252a1.466 1.466 0 0 0 0 2.014l.257.268a9.208 9.208 0 0 1 2.058-2.39l-.137-.144z" fill="#46AEDA"/><path d="M73.885 31.042a87.683 87.683 0 0 1-.88-2.427c-.275-.795-.56-1.604-.853-2.427h-8.64l-1.733 4.854H59c.733-2.01 1.42-3.87 2.064-5.58a240 240 0 0 1 1.884-4.868 169.737 169.737 0 0 1 1.83-4.4c.605-1.4 1.238-2.785 1.9-4.156h2.447c.66 1.37 1.293 2.756 1.9 4.155.604 1.398 1.214 2.865 1.83 4.4a248.38 248.38 0 0 1 1.883 4.868c.642 1.71 1.33 3.57 2.064 5.582h-2.917zm-2.504-7.047c-.586-1.59-1.168-3.13-1.746-4.62a82.51 82.51 0 0 0-1.802-4.293 68.36 68.36 0 0 0-1.83 4.292 184.2 184.2 0 0 0-1.72 4.62h7.1zM84.004 30.992c-1.57-.037-2.685-.38-3.342-1.028-.658-.65-.986-1.66-.986-3.03V9.583l2.547-.446v17.378c0 .427.037.78.11 1.057.073.277.192.5.356.667.163.167.383.292.657.375.274.084.612.153 1.013.21l-.356 2.167M95.822 30.016c-.217.148-.64.337-1.264.568-.625.23-1.355.347-2.188.347-.852 0-1.654-.138-2.406-.415a5.217 5.217 0 0 1-1.97-1.29c-.563-.582-1.007-1.306-1.333-2.175-.325-.868-.49-1.903-.49-3.104 0-1.053.155-2.02.463-2.896a6.45 6.45 0 0 1 1.346-2.273 6.165 6.165 0 0 1 2.16-1.497c.852-.36 1.813-.54 2.882-.54 1.178 0 2.206.088 3.086.263.88.176 1.617.337 2.215.485v12.86c0 2.218-.56 3.825-1.685 4.823-1.124 1-2.828 1.497-5.11 1.497a14.22 14.22 0 0 1-4.567-.748l.46-2.245c.51.203 1.13.384 1.864.54.734.158 1.5.237 2.297.237 1.505 0 2.588-.304 3.25-.914.662-.61.992-1.58.992-2.91v-.61zM94.776 19.11c-.427-.065-1.002-.098-1.726-.098-1.36 0-2.407.454-3.14 1.36-.735.904-1.1 2.105-1.1 3.6 0 .833.102 1.545.31 2.136.21.592.49 1.08.844 1.47.353.387.76.673 1.223.858.462.185.938.277 1.428.277a5.63 5.63 0 0 0 1.848-.29c.56-.195 1.006-.42 1.332-.68v-8.426a8.26 8.26 0 0 0-1.02-.208zM123.356 30.992c-1.57-.037-2.685-.38-3.343-1.028-.657-.65-.986-1.66-.986-3.03V9.583l2.548-.446v17.377c0 .427.036.78.11 1.057.072.278.19.5.356.668.165.167.384.292.658.375a6.69 6.69 0 0 0 1.014.21l-.356 2.167M128.396 13.553c-.52 0-.963-.156-1.327-.468-.365-.313-.547-.734-.547-1.264s.182-.95.546-1.263c.363-.313.806-.47 1.326-.47s.963.157 1.328.47c.364.312.546.733.546 1.264 0 .53-.182.952-.546 1.265-.365.312-.807.468-1.328.468zm-1.436 2.67h2.904v14.77h-2.904v-14.77zM138.772 14.79c1.037 0 1.91.143 2.624.43.712.287 1.286.693 1.72 1.217.435.525.746 1.15.93 1.87.185.724.278 1.52.278 2.39v9.652c-.222.04-.532.093-.93.162-.398.07-.846.134-1.346.193-.5.06-1.04.114-1.624.163-.583.05-1.162.075-1.735.075-.816 0-1.565-.09-2.25-.268a4.882 4.882 0 0 1-1.777-.846c-.5-.387-.888-.896-1.166-1.53-.277-.634-.416-1.396-.416-2.287 0-.85.163-1.583.487-2.197a4.032 4.032 0 0 1 1.32-1.485 5.894 5.894 0 0 1 1.942-.83 9.93 9.93 0 0 1 2.33-.267c.26 0 .528.014.806.044.277.03.54.07.79.12.25.05.468.093.654.133.184.04.314.07.388.09v-.773a6.63 6.63 0 0 0-.14-1.35 3.207 3.207 0 0 0-.498-1.19 2.57 2.57 0 0 0-.986-.83c-.417-.208-.958-.312-1.624-.312-.852 0-1.596.064-2.235.193-.638.13-1.115.262-1.43.4l-.305-2.286c.333-.158.89-.31 1.666-.46.777-.15 1.62-.223 2.526-.223zm.222 13.836c.61 0 1.152-.015 1.624-.044a6.62 6.62 0 0 0 1.18-.163v-4.604c-.185-.1-.486-.183-.902-.252a9.392 9.392 0 0 0-1.513-.105c-.39 0-.8.03-1.235.09-.435.058-.834.182-1.194.37a2.59 2.59 0 0 0-.902.772c-.24.326-.36.757-.36 1.292 0 .99.294 1.677.887 2.063.59.387 1.396.58 2.414.58z" fill="#FFF"/><g><path fill="#1D3657" d="M22.627 0l22.628 22.627-22.628 22.628L0 22.627z"/><path fill="#46AEDA" d="M19.092 6.364l3.535-3.536L26.87 7.07l-1.414 1.415-2.83-2.828-2.12 2.12z"/><path fill="#FE336F" d="M26.163 38.89l-3.536 3.536-12.02-12.02 1.414-1.415L22.628 39.6l2.122-2.12z"/><path fill="#F5A623" d="M27.577 37.477l14.85-14.85L28.283 8.485 26.87 9.9l12.728 12.727-13.435 13.435z"/><path fill="#50E3C2" d="M9.192 16.263l-6.364 6.364 6.364 6.364 1.415-1.413-4.95-4.95 4.95-4.95z"/><path fill="#BD0FE1" d="M10.607 14.85l7.07-7.072 1.415 1.414-7.07 7.07z"/><g fill="#FFF"><path d="M16.05 23.647c0 3.787 2.968 6.86 6.63 6.86 3.664 0 6.632-3.073 6.632-6.86 0-3.788-2.968-6.86-6.63-6.86-3.664 0-6.633 3.072-6.633 6.86zm6.63-5.095c2.716 0 4.926 2.286 4.926 5.095 0 2.81-2.21 5.094-4.925 5.094s-4.925-2.284-4.925-5.093c0-2.81 2.21-5.095 4.926-5.095z"/><path d="M23.96 19.69l-.97 3.55 3.12-1.767a3.597 3.597 0 0 0-2.15-1.782zM24.95 15.952v-.61c0-.675-.527-1.222-1.177-1.223h-2.058c-.65 0-1.176.546-1.176 1.22v.602a7.355 7.355 0 0 1 4.402.09c.002-.028.008-.053.008-.08zM17.756 17.227a1.146 1.146 0 0 0-1.664 0l-.208.216c-.46.477-.46 1.25 0 1.728l.22.23a7.905 7.905 0 0 1 1.77-2.05l-.118-.123z"/></g></g></g></svg>